<svg version="1.0" xmlns="http://www.w3.org/2000/svg"
 width="324.000000pt" height="262.000000pt" viewBox="0 0 324.000000 262.000000"
 preserveAspectRatio="xMidYMid meet">

<g transform="translate(0.000000,262.000000) scale(0.100000,-0.100000)"
fill="#000000" stroke="none">
<path d="M579 2405 c-53 -7 -141 -25 -194 -39 -297 -79 -363 -213 -188 -383
l57 -56 17 52 c9 29 30 69 46 89 44 54 167 135 264 172 78 30 294 90 325 90 8
0 -2 -26 -28 -72 -263 -461 -430 -1111 -390 -1515 13 -134 26 -184 58 -218 29
-31 59 -23 88 24 13 20 69 122 126 226 116 216 273 479 398 670 94 145 248
361 262 370 5 3 -9 -29 -30 -72 -151 -295 -240 -703 -211 -967 19 -164 67
-240 122 -190 11 10 52 77 91 148 108 199 220 393 296 513 68 107 132 200 132
191 0 -2 -16 -44 -35 -92 -74 -183 -110 -404 -86 -527 17 -85 54 -155 92 -174
58 -31 65 -23 269 268 83 119 153 217 154 217 1 0 0 -56 -2 -123 -5 -140 10
-214 54 -266 52 -62 125 -59 227 10 50 35 57 37 57 19 0 -11 -39 -60 -91 -115
-152 -158 -207 -244 -228 -357 -19 -107 7 -187 79 -235 61 -42 209 -25 268 30
55 51 80 133 156 515 l55 272 76 83 c71 76 215 258 215 271 0 3 -12 6 -27 6
-23 0 -46 -21 -123 -107 -52 -58 -96 -101 -98 -94 -6 17 63 229 108 331 21 49
63 128 94 175 64 97 68 121 29 136 -34 13 -212 6 -241 -10 -11 -6 -26 -27 -32
-46 -6 -19 -14 -35 -17 -35 -4 0 -21 11 -40 26 -167 127 -352 19 -453 -265
-30 -83 -41 -99 -175 -257 -78 -93 -168 -196 -198 -229 l-56 -60 -1 41 c-1
153 198 635 404 978 36 60 66 116 66 123 0 27 -20 51 -50 61 -89 32 -283 -89
-452 -282 -151 -172 -350 -501 -443 -731 -59 -146 -50 -91 22 130 42 131 131
356 203 514 65 143 214 441 245 492 21 33 22 39 9 50 -8 7 -50 14 -94 17 -301
17 -600 -295 -984 -1028 -90 -172 -96 -173 -39 -5 95 273 303 747 458 1041 53
99 81 162 75 168 -38 38 -498 59 -691 31z m2144 -887 c15 -12 13 -22 -19 -113
-20 -55 -51 -155 -69 -221 -47 -170 -110 -287 -161 -300 -37 -9 -44 8 -44 101
0 128 56 337 117 442 51 87 128 127 176 91z m-208 -1109 c-16 -176 -32 -249
-55 -249 -20 0 -60 52 -71 94 -13 50 -6 113 21 173 22 49 109 177 116 170 3
-2 -3 -87 -11 -188z"/>
</g>
</svg>
